# xmcd
#
# Track frame offsets: 
#        150
#        18747
#        37137
#        51257
#        66411
#        84188
#        95731
#        106314
#        118968
#        151035
#        162120
#
# Disc length: 2420 seconds
#
# Revision: 0
# Processed by: cddbd v1.5.2PL0 Copyright (c) Steve Scherf et al.
# Submitted via: ExactAudioCopy v0.99pb3
#
DISCID=9009720b
DTITLE=Deanna Bogart - Pianoland
DYEAR=2012
DGENRE=Blues
TTITLE0=In The Rain
TTITLE1=On And On And
TTITLE2=Boogie Woogie Boogie
TTITLE3=Couldn't Love You More
TTITLE4=Where The Well Never Runs Dry
TTITLE5=I Love The Life I Live
TTITLE6=Death Ray Boogie
TTITLE7=Over The Rainbow
TTITLE8=Pianoland
TTITLE9=Blues At 11
TTITLE10=Close Your Eyes
EXTD=
EXTT0=
EXTT1=
EXTT2=
EXTT3=
EXTT4=
EXTT5=
EXTT6=
EXTT7=
EXTT8=
EXTT9=
EXTT10=
PLAYORDER=
